<svg width="180" height="100" viewBox="0 0 180 100" fill="none" xmlns="http://www.w3.org/2000/svg">
<path d="M19 79.298C19 72.4278 36.2271 63.6839 55.4678 64.6207C66.3128 65.1488 74.3147 69.8438 79.233 76.5807C81.6805 79.9332 85.184 80.3206 83.5359 73.3429C80.0678 62.2601 70.4984 53.5242 55.4678 52.7923C36.2271 51.8555 19 60.5994 19 67.4696V79.298Z" fill="url(#paint0_linear_2204_33)"/>
<path d="M41.5966 88.9787C32.4237 89.291 19 86.1682 19 79.298V67.4696C19 74.3398 32.4237 77.4626 41.5966 77.1503C50.7695 76.8381 85 70.9047 85 44.3607V56.1891C85 82.7331 50.7695 88.6665 41.5966 88.9787Z" fill="black"/>
<path d="M55.4678 25.8978C74.7085 26.8346 85 40.8873 85 56.1891V44.3607C85 29.0589 74.7085 15.0062 55.4678 14.0694C36.2271 13.1325 19 21.8764 19 28.7466V40.575L29.2524 37.0214C29.2524 37.0214 21.5631 34.5014 27.9709 31.2693C34.8066 27.8213 44.8294 25.3798 55.4678 25.8978Z" fill="black"/>
<path d="M41.5966 50.2558C32.4237 50.568 19 47.4452 19 40.575V28.7466C19 35.6168 32.4237 38.7396 41.5966 38.4274C46.3561 38.2653 57.8615 37.0104 67.8311 31.7398V31.7398C67.8311 39.0161 63.8406 45.9121 56.8252 47.8432C50.4349 49.6023 44.6382 50.1522 41.5966 50.2558Z" fill="url(#paint1_linear_2204_33)"/>
<path d="M91.9 57.98C94.7 55.06 98.2 53.6 102.4 53.6C104.44 53.6 106.34 54 108.1 54.8C109.9 55.56 111.46 56.62 112.78 57.98C114.14 59.34 115.2 60.94 115.96 62.78C116.72 64.58 117.1 66.52 117.1 68.6C117.1 70.68 116.72 72.64 115.96 74.48C115.24 76.28 114.22 77.86 112.9 79.22C111.58 80.58 110.02 81.66 108.22 82.46C106.42 83.22 104.48 83.6 102.4 83.6C100.28 83.6 98.32 83.22 96.52 82.46C94.76 81.66 93.22 80.58 91.9 79.22C90.58 77.86 89.54 76.28 88.78 74.48C88.06 72.64 87.7 70.68 87.7 68.6C87.7 64.36 89.1 60.82 91.9 57.98ZM102.4 58.64C99.6 58.64 97.34 59.56 95.62 61.4C93.94 63.24 93.1 65.64 93.1 68.6C93.1 71.56 93.94 73.96 95.62 75.8C97.34 77.64 99.6 78.56 102.4 78.56C105.24 78.56 107.5 77.64 109.18 75.8C110.86 73.92 111.7 71.52 111.7 68.6C111.7 65.68 110.86 63.3 109.18 61.46C107.5 59.58 105.24 58.64 102.4 58.64ZM120.105 83V66.62C120.105 62.02 120.965 58.84 122.685 57.08C123.525 56.2 124.545 55.54 125.745 55.1C126.945 54.66 127.985 54.4 128.865 54.32C129.785 54.24 131.025 54.2 132.585 54.2H137.865V59.24H131.505C130.705 59.24 130.085 59.26 129.645 59.3C129.205 59.34 128.685 59.48 128.085 59.72C127.485 59.96 126.965 60.34 126.525 60.86C125.765 61.82 125.385 63.74 125.385 66.62V83H120.105ZM150.747 83H145.467V59.24H140.547L142.947 54.2H150.747V83ZM145.227 48.2C144.707 47.52 144.447 46.78 144.447 45.98C144.447 45.18 144.707 44.46 145.227 43.82C145.747 43.14 146.547 42.8 147.627 42.8C148.707 42.8 149.507 43.14 150.027 43.82C150.547 44.46 150.807 45.18 150.807 45.98C150.807 46.78 150.547 47.52 150.027 48.2C149.507 48.84 148.707 49.16 147.627 49.16C146.547 49.16 145.747 48.84 145.227 48.2Z" fill="url(#paint2_linear_2204_33)"/>
<defs>
<linearGradient id="paint0_linear_2204_33" x1="85.6408" y1="79.5864" x2="62.8872" y2="78.6983" gradientUnits="userSpaceOnUse">
<stop offset="0.104424" stop-color="#666666"/>
<stop offset="0.740385"/>
</linearGradient>
<linearGradient id="paint1_linear_2204_33" x1="51.1081" y1="34.2773" x2="4.72973" y2="34.2773" gradientUnits="userSpaceOnUse">
<stop/>
<stop offset="1" stop-color="#666666"/>
</linearGradient>
<linearGradient id="paint2_linear_2204_33" x1="89" y1="55.5" x2="170.5" y2="95" gradientUnits="userSpaceOnUse">
<stop/>
<stop offset="1" stop-color="#666666"/>
</linearGradient>
</defs>
</svg>
